<?xml version="1.0" standalone="no"?>
<!DOCTYPE svg PUBLIC "-//W3C//DTD SVG 20010904//EN"
 "http://www.w3.org/TR/2001/REC-SVG-20010904/DTD/svg10.dtd">
<svg version="1.0" xmlns="http://www.w3.org/2000/svg"
 width="1280.000000pt" height="1064.000000pt" viewBox="0 0 1280.000000 1064.000000"
 preserveAspectRatio="xMidYMid meet">
<metadata>
Created by potrace 1.15, written by Peter Selinger 2001-2017
</metadata>
<g transform="translate(0.000000,1064.000000) scale(0.100000,-0.100000)"
fill="#000000" stroke="none">
<path d="M6120 10160 l0 -480 -311 -723 c-171 -397 -356 -825 -410 -951 l-99
-230 0 -383 0 -383 -40 0 -40 0 0 320 0 320 -305 0 -305 0 0 -91 0 -90 -32 3
-33 3 -3 88 -3 87 -309 0 -310 0 0 -90 0 -90 -40 0 -40 0 0 90 0 90 -305 0
-305 0 0 -90 0 -90 -30 0 -30 0 0 90 0 90 -310 0 -310 0 2 -367 3 -368 98 -64
97 -64 0 -379 0 -378 -275 0 -275 0 0 -140 0 -140 -135 0 -135 0 0 140 0 140
-415 0 -415 0 0 -140 0 -140 -135 0 -134 0 -3 138 -3 137 -412 3 -413 2 0
-518 0 -518 170 -114 170 -113 0 -2079 0 -2078 38 -24 c158 -99 472 -223 737
-290 328 -82 518 -104 1015 -116 724 -18 1182 -66 1614 -169 34 -8 39 -7 43
10 5 19 25 19 829 19 l824 0 0 70 0 70 960 0 960 0 0 -70 0 -70 760 0 c629 0
760 -2 760 -13 0 -12 11 -12 68 -1 37 7 97 13 134 14 36 0 68 4 70 10 6 20
505 79 890 105 122 8 405 19 628 25 497 12 687 34 1015 116 265 67 579 191
737 290 l38 24 0 2078 0 2079 170 113 170 114 0 518 0 518 -412 -2 -413 -3 -3
-137 -3 -138 -134 0 -135 0 0 140 0 140 -415 0 -415 0 0 -140 0 -140 -135 0
-135 0 0 140 0 140 -317 2 -318 3 0 375 0 374 103 68 102 68 0 365 0 365 -300
0 -299 0 -3 -87 -3 -88 -32 -3 -33 -3 0 90 0 91 -310 0 -309 0 -3 -87 -3 -88
-40 0 -40 0 0 88 0 87 -302 0 -302 0 -3 -87 -3 -88 -32 -3 -33 -3 0 90 0 91
-310 0 -310 0 0 -320 0 -320 -70 0 -70 0 0 386 0 385 -201 467 c-111 257 -264
613 -341 792 -77 179 -171 397 -209 484 -61 141 -69 166 -69 222 l0 64 343 2
342 3 3 343 2 342 -140 0 -140 0 0 70 0 70 -415 0 -415 0 0 -480z"/>
</g>
</svg>
